
  <svg
    width="1000"
    height="1000"
    viewBox="0 0 1000 1000"
    xmlns="http://www.w3.org/2000/svg"
  >
    <defs>
      
      
      
      
      
      
      
      <clipPath id="shape">
        <path fill="currentColor" d="M890,690.5Q804,881,604,900Q404,919,260.5,802Q117,685,113,498.5Q109,312,250,167Q391,22,581,91Q771,160,873.5,330Q976,500,890,690.5Z"></path>
      </clipPath>
    </defs>
  
    

    <g  clip-path="url(#shape)">
      <path fill="#8f45f7" d="M890,690.5Q804,881,604,900Q404,919,260.5,802Q117,685,113,498.5Q109,312,250,167Q391,22,581,91Q771,160,873.5,330Q976,500,890,690.5Z" />
    </g>

    
  
  </svg>